<?xml version="1.0" encoding="UTF-8" standalone="no"?>
<svg
   xmlns:dc="http://purl.org/dc/elements/1.1/"
   xmlns:cc="http://creativecommons.org/ns#"
   xmlns:rdf="http://www.w3.org/1999/02/22-rdf-syntax-ns#"
   xmlns:svg="http://www.w3.org/2000/svg"
   xmlns="http://www.w3.org/2000/svg"
   xmlns:sodipodi="http://sodipodi.sourceforge.net/DTD/sodipodi-0.dtd"
   xmlns:inkscape="http://www.inkscape.org/namespaces/inkscape"
   width="297mm"
   height="177mm"
   viewBox="0 0 297 177"
   version="1.1"
   id="svg8"
   inkscape:version="1.0.1 (3bc2e813f5, 2020-09-07)"
   sodipodi:docname="negative.svg">
  <defs
     id="defs2">
    <clipPath
       clipPathUnits="userSpaceOnUse"
       id="clipPath851">
      <path
         d="M 0,0 H 1054 V 585 H 0 Z"
         id="path849" />
    </clipPath>
    <clipPath
       clipPathUnits="userSpaceOnUse"
       id="clipPath1507">
      <path
         d="M 0,0 H 1054 V 585 H 0 Z"
         id="path1505" />
    </clipPath>
  </defs>
  <sodipodi:namedview
     id="base"
     pagecolor="#ffffff"
     bordercolor="#666666"
     borderopacity="1.0"
     inkscape:pageopacity="0.0"
     inkscape:pageshadow="2"
     inkscape:zoom="0.35"
     inkscape:cx="400"
     inkscape:cy="1131.4286"
     inkscape:document-units="mm"
     inkscape:current-layer="layer1"
     inkscape:document-rotation="0"
     showgrid="false"
     height="209mm"
     inkscape:window-width="1439"
     inkscape:window-height="1016"
     inkscape:window-x="743"
     inkscape:window-y="346"
     inkscape:window-maximized="0" />
  <metadata
     id="metadata5">
    <rdf:RDF>
      <cc:Work
         rdf:about="">
        <dc:format>image/svg+xml</dc:format>
        <dc:type
           rdf:resource="http://purl.org/dc/dcmitype/StillImage" />
        <dc:title></dc:title>
      </cc:Work>
    </rdf:RDF>
  </metadata>
  <g
     inkscape:label="Layer 1"
     inkscape:groupmode="layer"
     id="layer1">
    <g
       id="g1497"
       inkscape:label="negative"
       transform="matrix(0.30721559,0,0,-0.30721559,-4.670707,179.68897)">
      <g
         id="g1499" />
      <g
         id="g1501">
        <g
           id="g1503"
           clip-path="url(#clipPath1507)">
          <path
             d="M 0.06,585 H 1054 V 0 H 0.06 Z"
             style="fill:#ffffff;fill-opacity:1;fill-rule:nonzero;stroke:none"
             id="path1509" />
          <path
             d="M 0.06,585 H 1054 V 0 H 0.06 Z"
             style="fill:#ffffff;fill-opacity:1;fill-rule:nonzero;stroke:none"
             id="path1511" />
          <path
             d="M 137,541 H 956 V 123 H 137 Z"
             style="fill:#ffffff;fill-opacity:1;fill-rule:nonzero;stroke:none"
             id="path1513" />
          <text
             transform="matrix(1,0,0,-1,374.0004,78)"
             style="font-variant:normal;font-weight:normal;font-size:22px;font-family:Helvetica;-inkscape-font-specification:Helvetica;writing-mode:lr-tb;fill:#262626;fill-opacity:1;fill-rule:nonzero;stroke:none"
             id="text1517"><tspan
               x="0 15.884 28.115999 46.442001 58.674 70.905998 78.232002 84.348 96.580002 102.696 108.812 121.044 133.276 138.16 150.392 162.62399 174.856 187.088 199.32001 206.646 211.53 223.76199 235.994 242.11 256.784 264.10999 278.784 284.89999 297.13199 309.36401 321.59601 333.828"
               y="0"
               sodipodi:role="line"
               id="tspan1515">Number of neighbouring A-B bonds</tspan></text>
          <path
             d="M 137,123 H 956 M 137,541 H 956 M 218.9,123 v 8.19 M 382.7,123 v 8.19 M 546.5,123 v 8.19 M 710.3,123 v 8.19 M 874.1,123 v 8.19 M 218.9,541 v -8.19 M 382.7,541 v -8.19 M 546.5,541 v -8.19 M 710.3,541 v -8.19 M 874.1,541 v -8.19"
             style="fill:none;stroke:#262626;stroke-width:1;stroke-linecap:square;stroke-linejoin:miter;stroke-miterlimit:10;stroke-dasharray:none;stroke-opacity:1"
             id="path1519" />
          <text
             transform="matrix(1,0,0,-1,212.9,101)"
             style="font-variant:normal;font-weight:normal;font-size:20px;font-family:Helvetica;-inkscape-font-specification:Helvetica;writing-mode:lr-tb;fill:#262626;fill-opacity:1;fill-rule:nonzero;stroke:none"
             id="text1523"><tspan
               x="0 163.79601 327.59201 491.388 655.18402"
               y="0"
               sodipodi:role="line"
               id="tspan1521">01234</tspan></text>
          <text
             transform="matrix(0,1,1,0,88,209.0002)"
             style="font-variant:normal;font-weight:normal;font-size:22px;font-family:Helvetica;-inkscape-font-specification:Helvetica;writing-mode:lr-tb;fill:#262626;fill-opacity:1;fill-rule:nonzero;stroke:none"
             id="text1527"><tspan
               x="0 14.674 26.906 34.231998 45.231998 57.464001 69.695999 75.811996 88.043999 100.276 112.508 118.624 130.856 136.972 143.088 157.76199 163.87801 176.11 194.436 205.436 211.552 218.87801 238.436"
               y="0"
               sodipodi:role="line"
               id="tspan1525">Percentage of Atoms (%)</tspan></text>
          <path
             d="M 137,123 V 541 M 956,123 V 541 M 137,123 h 8.19 M 137,164.8 h 8.19 M 137,206.6 h 8.19 M 137,248.4 h 8.19 M 137,290.2 h 8.19 M 137,332 h 8.19 M 137,373.8 h 8.19 M 137,415.6 h 8.19 M 137,457.4 h 8.19 M 137,499.2 h 8.19 M 137,541 h 8.19 M 956,123 h -8.19 m 8.19,41.8 h -8.19 m 8.19,41.8 h -8.19 m 8.19,41.8 h -8.19 m 8.19,41.8 h -8.19 M 956,332 h -8.19 m 8.19,41.8 h -8.19 m 8.19,41.8 h -8.19 m 8.19,41.8 h -8.19 m 8.19,41.8 h -8.19 M 956,541 h -8.19"
             style="fill:none;stroke:#262626;stroke-width:1;stroke-linecap:square;stroke-linejoin:miter;stroke-miterlimit:10;stroke-dasharray:none;stroke-opacity:1"
             id="path1529" />
          <text
             transform="matrix(1,0,0,-1,119,117.5)"
             style="font-variant:normal;font-weight:normal;font-size:20px;font-family:Helvetica;-inkscape-font-specification:Helvetica;writing-mode:lr-tb;fill:#262626;fill-opacity:1;fill-rule:nonzero;stroke:none"
             id="text1533"><tspan
               x="0"
               y="0"
               id="tspan1531">0</tspan></text>
          <text
             transform="matrix(1,0,0,-1,108,159.3)"
             style="font-variant:normal;font-weight:normal;font-size:20px;font-family:Helvetica;-inkscape-font-specification:Helvetica;writing-mode:lr-tb;fill:#262626;fill-opacity:1;fill-rule:nonzero;stroke:none"
             id="text1537"><tspan
               x="0 11.12"
               y="0"
               sodipodi:role="line"
               id="tspan1535">10</tspan></text>
          <text
             transform="matrix(1,0,0,-1,108,201.1)"
             style="font-variant:normal;font-weight:normal;font-size:20px;font-family:Helvetica;-inkscape-font-specification:Helvetica;writing-mode:lr-tb;fill:#262626;fill-opacity:1;fill-rule:nonzero;stroke:none"
             id="text1541"><tspan
               x="0 11.12"
               y="0"
               sodipodi:role="line"
               id="tspan1539">20</tspan></text>
          <text
             transform="matrix(1,0,0,-1,108,242.9)"
             style="font-variant:normal;font-weight:normal;font-size:20px;font-family:Helvetica;-inkscape-font-specification:Helvetica;writing-mode:lr-tb;fill:#262626;fill-opacity:1;fill-rule:nonzero;stroke:none"
             id="text1545"><tspan
               x="0 11.12"
               y="0"
               sodipodi:role="line"
               id="tspan1543">30</tspan></text>
          <text
             transform="matrix(1,0,0,-1,108,284.7)"
             style="font-variant:normal;font-weight:normal;font-size:20px;font-family:Helvetica;-inkscape-font-specification:Helvetica;writing-mode:lr-tb;fill:#262626;fill-opacity:1;fill-rule:nonzero;stroke:none"
             id="text1549"><tspan
               x="0 11.12"
               y="0"
               sodipodi:role="line"
               id="tspan1547">40</tspan></text>
          <text
             transform="matrix(1,0,0,-1,108,326.5)"
             style="font-variant:normal;font-weight:normal;font-size:20px;font-family:Helvetica;-inkscape-font-specification:Helvetica;writing-mode:lr-tb;fill:#262626;fill-opacity:1;fill-rule:nonzero;stroke:none"
             id="text1553"><tspan
               x="0 11.12"
               y="0"
               sodipodi:role="line"
               id="tspan1551">50</tspan></text>
          <text
             transform="matrix(1,0,0,-1,108,368.3)"
             style="font-variant:normal;font-weight:normal;font-size:20px;font-family:Helvetica;-inkscape-font-specification:Helvetica;writing-mode:lr-tb;fill:#262626;fill-opacity:1;fill-rule:nonzero;stroke:none"
             id="text1557"><tspan
               x="0 11.12"
               y="0"
               sodipodi:role="line"
               id="tspan1555">60</tspan></text>
          <text
             transform="matrix(1,0,0,-1,108,410.1)"
             style="font-variant:normal;font-weight:normal;font-size:20px;font-family:Helvetica;-inkscape-font-specification:Helvetica;writing-mode:lr-tb;fill:#262626;fill-opacity:1;fill-rule:nonzero;stroke:none"
             id="text1561"><tspan
               x="0 11.12"
               y="0"
               sodipodi:role="line"
               id="tspan1559">70</tspan></text>
          <text
             transform="matrix(1,0,0,-1,108,451.9)"
             style="font-variant:normal;font-weight:normal;font-size:20px;font-family:Helvetica;-inkscape-font-specification:Helvetica;writing-mode:lr-tb;fill:#262626;fill-opacity:1;fill-rule:nonzero;stroke:none"
             id="text1565"><tspan
               x="0 11.12"
               y="0"
               sodipodi:role="line"
               id="tspan1563">80</tspan></text>
          <text
             transform="matrix(1,0,0,-1,108,493.7)"
             style="font-variant:normal;font-weight:normal;font-size:20px;font-family:Helvetica;-inkscape-font-specification:Helvetica;writing-mode:lr-tb;fill:#262626;fill-opacity:1;fill-rule:nonzero;stroke:none"
             id="text1569"><tspan
               x="0 11.12"
               y="0"
               sodipodi:role="line"
               id="tspan1567">90</tspan></text>
          <text
             transform="matrix(1,0,0,-1,97,535.5)"
             style="font-variant:normal;font-weight:normal;font-size:20px;font-family:Helvetica;-inkscape-font-specification:Helvetica;writing-mode:lr-tb;fill:#262626;fill-opacity:1;fill-rule:nonzero;stroke:none"
             id="text1573"><tspan
               x="0 11.12 22.24"
               y="0"
               sodipodi:role="line"
               id="tspan1571">100</tspan></text>
          <path
             d="m 155.252,133.408 h 14.976 V 123 h -14.976 z"
             style="fill:#352a86;fill-opacity:1;fill-rule:nonzero;stroke:none"
             id="path1575" />
          <path
             d="m 319.052,126.428 h 14.976 V 123 h -14.976 z"
             style="fill:#352a86;fill-opacity:1;fill-rule:nonzero;stroke:none"
             id="path1577" />
          <path
             d="m 482.852,139.009 h 14.976 V 123 h -14.976 z"
             style="fill:#352a86;fill-opacity:1;fill-rule:nonzero;stroke:none"
             id="path1579" />
          <path
             d="m 646.652,173.494 h 14.976 V 123 h -14.976 z"
             style="fill:#352a86;fill-opacity:1;fill-rule:nonzero;stroke:none"
             id="path1581" />
          <path
             d="m 810.452,460.66 h 14.976 V 123 h -14.976 z"
             style="fill:#352a86;fill-opacity:1;fill-rule:nonzero;stroke:none"
             id="path1583" />
          <path
             d="m 155.252,123 v 10.408 h 14.976 V 123 h -14.976 m 163.8,0 v 3.428 h 14.976 V 123 h -14.976 m 163.8,0 v 16.009 h 14.976 V 123 h -14.976 m 163.8,0 v 50.494 h 14.976 V 123 h -14.976 m 163.8,0 v 337.66 h 14.976 V 123 h -14.976"
             style="fill:none;stroke:#000000;stroke-width:1;stroke-linecap:square;stroke-linejoin:miter;stroke-miterlimit:10;stroke-dasharray:none;stroke-opacity:1"
             id="path1585" />
          <path
             d="m 173.972,125.006 h 14.976 V 123 h -14.976 z"
             style="fill:#046ce0;fill-opacity:1;fill-rule:nonzero;stroke:none"
             id="path1587" />
          <path
             d="m 337.772,123.334 h 14.976 V 123 h -14.976 z"
             style="fill:#046ce0;fill-opacity:1;fill-rule:nonzero;stroke:none"
             id="path1589" />
          <path
             d="m 501.572,123.042 h 14.976 V 123 h -14.976 z"
             style="fill:#046ce0;fill-opacity:1;fill-rule:nonzero;stroke:none"
             id="path1591" />
          <path
             d="m 665.372,131.945 h 14.976 V 123 h -14.976 z"
             style="fill:#046ce0;fill-opacity:1;fill-rule:nonzero;stroke:none"
             id="path1593" />
          <path
             d="m 829.172,529.672 h 14.976 V 123 h -14.976 z"
             style="fill:#046ce0;fill-opacity:1;fill-rule:nonzero;stroke:none"
             id="path1595" />
          <path
             d="m 173.972,123 v 2.006 h 14.976 V 123 h -14.976 m 163.8,0 v 0.334 h 14.976 V 123 h -14.976 m 163.8,0 v 0.042 h 14.976 V 123 h -14.976 m 163.8,0 v 8.945 h 14.976 V 123 h -14.976 m 163.8,0 v 406.672 h 14.976 V 123 h -14.976"
             style="fill:none;stroke:#000000;stroke-width:1;stroke-linecap:square;stroke-linejoin:miter;stroke-miterlimit:10;stroke-dasharray:none;stroke-opacity:1"
             id="path1597" />
          <path
             d="m 192.692,133.617 h 14.976 V 123 h -14.976 z"
             style="fill:#069ccf;fill-opacity:1;fill-rule:nonzero;stroke:none"
             id="path1599" />
          <path
             d="m 356.492,139.804 h 14.976 V 123 h -14.976 z"
             style="fill:#069ccf;fill-opacity:1;fill-rule:nonzero;stroke:none"
             id="path1601" />
          <path
             d="m 520.292,149.877 h 14.976 V 123 h -14.976 z"
             style="fill:#069ccf;fill-opacity:1;fill-rule:nonzero;stroke:none"
             id="path1603" />
          <path
             d="m 684.092,217.468 h 14.976 V 123 h -14.976 z"
             style="fill:#069ccf;fill-opacity:1;fill-rule:nonzero;stroke:none"
             id="path1605" />
          <path
             d="m 847.892,392.234 h 14.976 V 123 h -14.976 z"
             style="fill:#069ccf;fill-opacity:1;fill-rule:nonzero;stroke:none"
             id="path1607" />
          <path
             d="m 192.692,123 v 10.617 h 14.976 V 123 h -14.976 m 163.8,0 v 16.804 h 14.976 V 123 h -14.976 m 163.8,0 v 26.877 h 14.976 V 123 h -14.976 m 163.8,0 v 94.468 h 14.976 V 123 h -14.976 m 163.8,0 v 269.234 h 14.976 V 123 h -14.976"
             style="fill:none;stroke:#000000;stroke-width:1;stroke-linecap:square;stroke-linejoin:miter;stroke-miterlimit:10;stroke-dasharray:none;stroke-opacity:1"
             id="path1609" />
          <path
             d="m 211.412,132.112 h 14.976 V 123 h -14.976 z"
             style="fill:#37b89d;fill-opacity:1;fill-rule:nonzero;stroke:none"
             id="path1611" />
          <path
             d="m 375.212,167.266 h 14.976 V 123 h -14.976 z"
             style="fill:#37b89d;fill-opacity:1;fill-rule:nonzero;stroke:none"
             id="path1613" />
          <path
             d="m 539.012,233.31 h 14.976 V 123 h -14.976 z"
             style="fill:#37b89d;fill-opacity:1;fill-rule:nonzero;stroke:none"
             id="path1615" />
          <path
             d="m 702.812,275.528 h 14.976 V 123 h -14.976 z"
             style="fill:#37b89d;fill-opacity:1;fill-rule:nonzero;stroke:none"
             id="path1617" />
          <path
             d="m 866.612,224.783 h 14.976 V 123 h -14.976 z"
             style="fill:#37b89d;fill-opacity:1;fill-rule:nonzero;stroke:none"
             id="path1619" />
          <path
             d="m 211.412,123 v 9.112 h 14.976 V 123 h -14.976 m 163.8,0 v 44.266 h 14.976 V 123 h -14.976 m 163.8,0 v 110.31 h 14.976 V 123 h -14.976 m 163.8,0 v 152.528 h 14.976 V 123 h -14.976 m 163.8,0 v 101.783 h 14.976 V 123 h -14.976"
             style="fill:none;stroke:#000000;stroke-width:1;stroke-linecap:square;stroke-linejoin:miter;stroke-miterlimit:10;stroke-dasharray:none;stroke-opacity:1"
             id="path1621" />
          <path
             d="m 230.132,133.283 h 14.976 V 123 h -14.976 z"
             style="fill:#a5be6a;fill-opacity:1;fill-rule:nonzero;stroke:none"
             id="path1623" />
          <path
             d="m 393.932,181.227 h 14.976 V 123 h -14.976 z"
             style="fill:#a5be6a;fill-opacity:1;fill-rule:nonzero;stroke:none"
             id="path1625" />
          <path
             d="m 557.732,249.696 h 14.976 V 123 h -14.976 z"
             style="fill:#a5be6a;fill-opacity:1;fill-rule:nonzero;stroke:none"
             id="path1627" />
          <path
             d="m 721.532,271.265 h 14.976 V 123 h -14.976 z"
             style="fill:#a5be6a;fill-opacity:1;fill-rule:nonzero;stroke:none"
             id="path1629" />
          <path
             d="m 885.332,197.529 h 14.976 V 123 h -14.976 z"
             style="fill:#a5be6a;fill-opacity:1;fill-rule:nonzero;stroke:none"
             id="path1631" />
          <path
             d="m 230.132,123 v 10.283 h 14.976 V 123 h -14.976 m 163.8,0 v 58.227 h 14.976 V 123 h -14.976 m 163.8,0 v 126.696 h 14.976 V 123 h -14.976 m 163.8,0 v 148.265 h 14.976 V 123 h -14.976 m 163.8,0 v 74.529 h 14.976 V 123 h -14.976"
             style="fill:none;stroke:#000000;stroke-width:1;stroke-linecap:square;stroke-linejoin:miter;stroke-miterlimit:10;stroke-dasharray:none;stroke-opacity:1"
             id="path1633" />
          <path
             d="m 248.852,136.125 h 14.976 V 123 h -14.976 z"
             style="fill:#fdbe3d;fill-opacity:1;fill-rule:nonzero;stroke:none"
             id="path1635" />
          <path
             d="m 412.652,188.124 h 14.976 V 123 h -14.976 z"
             style="fill:#fdbe3d;fill-opacity:1;fill-rule:nonzero;stroke:none"
             id="path1637" />
          <path
             d="m 576.452,259.059 h 14.976 V 123 h -14.976 z"
             style="fill:#fdbe3d;fill-opacity:1;fill-rule:nonzero;stroke:none"
             id="path1639" />
          <path
             d="m 740.252,268.631 h 14.976 V 123 h -14.976 z"
             style="fill:#fdbe3d;fill-opacity:1;fill-rule:nonzero;stroke:none"
             id="path1641" />
          <path
             d="m 904.052,181.06 h 14.976 V 123 h -14.976 z"
             style="fill:#fdbe3d;fill-opacity:1;fill-rule:nonzero;stroke:none"
             id="path1643" />
          <path
             d="m 248.852,123 v 13.125 h 14.976 V 123 h -14.976 m 163.8,0 v 65.124 h 14.976 V 123 h -14.976 m 163.8,0 v 136.059 h 14.976 V 123 h -14.976 m 163.8,0 v 145.631 h 14.976 V 123 h -14.976 m 163.8,0 v 58.06 h 14.976 V 123 h -14.976"
             style="fill:none;stroke:#000000;stroke-width:1;stroke-linecap:square;stroke-linejoin:miter;stroke-miterlimit:10;stroke-dasharray:none;stroke-opacity:1"
             id="path1645" />
          <path
             d="m 267.572,149.125 h 14.976 V 123 h -14.976 z"
             style="fill:#f8fa0d;fill-opacity:1;fill-rule:nonzero;stroke:none"
             id="path1647" />
          <path
             d="m 431.372,227.5 h 14.976 V 123 h -14.976 z"
             style="fill:#f8fa0d;fill-opacity:1;fill-rule:nonzero;stroke:none"
             id="path1649" />
          <path
             d="m 595.172,279.75 h 14.976 V 123 h -14.976 z"
             style="fill:#f8fa0d;fill-opacity:1;fill-rule:nonzero;stroke:none"
             id="path1651" />
          <path
             d="m 758.972,227.5 h 14.976 V 123 h -14.976 z"
             style="fill:#f8fa0d;fill-opacity:1;fill-rule:nonzero;stroke:none"
             id="path1653" />
          <path
             d="m 922.772,149.125 h 14.976 V 123 h -14.976 z"
             style="fill:#f8fa0d;fill-opacity:1;fill-rule:nonzero;stroke:none"
             id="path1655" />
          <path
             d="m 267.572,123 v 26.125 h 14.976 V 123 h -14.976 m 163.8,0 v 104.5 h 14.976 V 123 h -14.976 m 163.8,0 v 156.75 h 14.976 V 123 h -14.976 m 163.8,0 v 104.5 h 14.976 V 123 h -14.976 m 163.8,0 v 26.125 h 14.976 V 123 h -14.976"
             style="fill:none;stroke:#000000;stroke-width:1;stroke-linecap:square;stroke-linejoin:miter;stroke-miterlimit:10;stroke-dasharray:none;stroke-opacity:1"
             id="path1657" />
          <path
             d="M 137,123 H 956"
             style="fill:none;stroke:#262626;stroke-width:1;stroke-linecap:square;stroke-linejoin:miter;stroke-miterlimit:10;stroke-dasharray:none;stroke-opacity:1"
             id="path1659" />
          <path
             d="M 207,67 H 876 V 0 H 207 Z"
             style="fill:#ffffff;fill-opacity:1;fill-rule:nonzero;stroke:none"
             id="path1661" />
          <text
             transform="matrix(1,0,0,-1,246,37.8764)"
             style="font-variant:normal;font-weight:normal;font-size:18px;font-family:Helvetica;-inkscape-font-specification:Helvetica;writing-mode:lr-tb;fill:#000000;fill-opacity:1;fill-rule:nonzero;stroke:none"
             id="text1665"><tspan
               x="0 10.008 20.016001 30.024"
               y="0"
               sodipodi:role="line"
               id="tspan1663">300K</tspan></text>
          <path
             d="m 213,58.114 h 30 V 26.639 h -30 z"
             style="fill:#352a86;fill-opacity:1;fill-rule:nonzero;stroke:none"
             id="path1667" />
          <path
             d="m 213,26.639 v 31.475 h 30 V 26.639 h -30"
             style="fill:none;stroke:#000000;stroke-width:1;stroke-linecap:square;stroke-linejoin:miter;stroke-miterlimit:10;stroke-dasharray:none;stroke-opacity:1"
             id="path1669" />
          <text
             transform="matrix(1,0,0,-1,327,37.8764)"
             style="font-variant:normal;font-weight:normal;font-size:18px;font-family:Helvetica;-inkscape-font-specification:Helvetica;writing-mode:lr-tb;fill:#000000;fill-opacity:1;fill-rule:nonzero;stroke:none"
             id="text1673"><tspan
               x="0 10.008 20.016001 30.024 40.032001"
               y="0"
               sodipodi:role="line"
               id="tspan1671">1000K</tspan></text>
          <path
             d="m 294,58.114 h 30 V 26.639 h -30 z"
             style="fill:#046ce0;fill-opacity:1;fill-rule:nonzero;stroke:none"
             id="path1675" />
          <path
             d="m 294,26.639 v 31.475 h 30 V 26.639 h -30"
             style="fill:none;stroke:#000000;stroke-width:1;stroke-linecap:square;stroke-linejoin:miter;stroke-miterlimit:10;stroke-dasharray:none;stroke-opacity:1"
             id="path1677" />
          <text
             transform="matrix(1,0,0,-1,418,37.8764)"
             style="font-variant:normal;font-weight:normal;font-size:18px;font-family:Helvetica;-inkscape-font-specification:Helvetica;writing-mode:lr-tb;fill:#000000;fill-opacity:1;fill-rule:nonzero;stroke:none"
             id="text1681"><tspan
               x="0 10.008 20.016001 30.024 40.032001"
               y="0"
               sodipodi:role="line"
               id="tspan1679">2000K</tspan></text>
          <path
             d="m 385,58.114 h 30 V 26.639 h -30 z"
             style="fill:#069ccf;fill-opacity:1;fill-rule:nonzero;stroke:none"
             id="path1683" />
          <path
             d="m 385,26.639 v 31.475 h 30 V 26.639 h -30"
             style="fill:none;stroke:#000000;stroke-width:1;stroke-linecap:square;stroke-linejoin:miter;stroke-miterlimit:10;stroke-dasharray:none;stroke-opacity:1"
             id="path1685" />
          <text
             transform="matrix(1,0,0,-1,509,37.8764)"
             style="font-variant:normal;font-weight:normal;font-size:18px;font-family:Helvetica;-inkscape-font-specification:Helvetica;writing-mode:lr-tb;fill:#000000;fill-opacity:1;fill-rule:nonzero;stroke:none"
             id="text1689"><tspan
               x="0 10.008 20.016001 30.024 40.032001"
               y="0"
               sodipodi:role="line"
               id="tspan1687">3000K</tspan></text>
          <path
             d="m 476,58.114 h 30 V 26.639 h -30 z"
             style="fill:#37b89d;fill-opacity:1;fill-rule:nonzero;stroke:none"
             id="path1691" />
          <path
             d="m 476,26.639 v 31.475 h 30 V 26.639 h -30"
             style="fill:none;stroke:#000000;stroke-width:1;stroke-linecap:square;stroke-linejoin:miter;stroke-miterlimit:10;stroke-dasharray:none;stroke-opacity:1"
             id="path1693" />
          <text
             transform="matrix(1,0,0,-1,600.0001,37.8764)"
             style="font-variant:normal;font-weight:normal;font-size:18px;font-family:Helvetica;-inkscape-font-specification:Helvetica;writing-mode:lr-tb;fill:#000000;fill-opacity:1;fill-rule:nonzero;stroke:none"
             id="text1697"><tspan
               x="0 10.008 20.016001 30.024 40.032001"
               y="0"
               sodipodi:role="line"
               id="tspan1695">4000K</tspan></text>
          <path
             d="m 567,58.114 h 30 V 26.639 h -30 z"
             style="fill:#a5be6a;fill-opacity:1;fill-rule:nonzero;stroke:none"
             id="path1699" />
          <path
             d="m 567,26.639 v 31.475 h 30 V 26.639 h -30"
             style="fill:none;stroke:#000000;stroke-width:1;stroke-linecap:square;stroke-linejoin:miter;stroke-miterlimit:10;stroke-dasharray:none;stroke-opacity:1"
             id="path1701" />
          <text
             transform="matrix(1,0,0,-1,691,37.8764)"
             style="font-variant:normal;font-weight:normal;font-size:18px;font-family:Helvetica;-inkscape-font-specification:Helvetica;writing-mode:lr-tb;fill:#000000;fill-opacity:1;fill-rule:nonzero;stroke:none"
             id="text1705"><tspan
               x="0 10.008 20.016001 30.024 40.032001"
               y="0"
               sodipodi:role="line"
               id="tspan1703">5000K</tspan></text>
          <path
             d="m 658,58.114 h 30 V 26.639 h -30 z"
             style="fill:#fdbe3d;fill-opacity:1;fill-rule:nonzero;stroke:none"
             id="path1707" />
          <path
             d="m 658,26.639 v 31.475 h 30 V 26.639 h -30"
             style="fill:none;stroke:#000000;stroke-width:1;stroke-linecap:square;stroke-linejoin:miter;stroke-miterlimit:10;stroke-dasharray:none;stroke-opacity:1"
             id="path1709" />
          <text
             transform="matrix(1,0,0,-1,782,47.3764)"
             style="font-variant:normal;font-weight:normal;font-size:18px;font-family:Helvetica;-inkscape-font-specification:Helvetica;writing-mode:lr-tb;fill:#000000;fill-opacity:1;fill-rule:nonzero;stroke:none"
             id="text1713"><tspan
               x="0 12.006 16.002001 26.01 36.018002 51.012001 55.007999 65.015999"
               y="0"
               sodipodi:role="line"
               id="tspan1711">Binomial</tspan></text>
          <text
             transform="matrix(1,0,0,-1,782,28.3756)"
             style="font-variant:normal;font-weight:normal;font-size:18px;font-family:Helvetica;-inkscape-font-specification:Helvetica;writing-mode:lr-tb;fill:#000000;fill-opacity:1;fill-rule:nonzero;stroke:none"
             id="text1717"><tspan
               x="0 12.996 16.992001 25.992001 30.996 36.990002 40.986 50.993999 61.001999 66.005997 70.001999 80.010002"
               y="0"
               sodipodi:role="line"
               id="tspan1715">Distribution</tspan></text>
          <path
             d="m 749,58.114 h 30 V 26.639 h -30 z"
             style="fill:#f8fa0d;fill-opacity:1;fill-rule:nonzero;stroke:none"
             id="path1719" />
          <path
             d="m 749,26.639 v 31.475 h 30 V 26.639 h -30"
             style="fill:none;stroke:#000000;stroke-width:1;stroke-linecap:square;stroke-linejoin:miter;stroke-miterlimit:10;stroke-dasharray:none;stroke-opacity:1"
             id="path1721" />
          <path
             d="M 207,0 V 67 H 876 V 0"
             style="fill:none;stroke:#ffffff;stroke-width:1;stroke-linecap:square;stroke-linejoin:miter;stroke-miterlimit:10;stroke-dasharray:none;stroke-opacity:1"
             id="path1723" />
        </g>
      </g>
    </g>
  </g>
</svg>
